<svg width="550" height="109" viewBox="0 0 550 109" fill="none" xmlns="http://www.w3.org/2000/svg">
<path d="M26.216 15.912C26.344 15.784 34.632 15.72 51.08 15.72H75.656L76.04 16.008C76.232 16.264 76.328 16.52 76.328 16.776L73.16 39.144C72.968 39.336 72.84 39.464 72.776 39.528C72.648 39.656 71.944 39.72 70.664 39.72C69.32 39.72 68.552 39.656 68.36 39.528C68.04 39.336 67.944 38.472 68.072 36.936C68.456 34.312 68.648 32.072 68.648 30.216C68.648 27.464 68.296 25.576 67.592 24.552C66.888 23.4 65.608 22.536 63.752 21.96C61.64 21.384 57.416 21.096 51.08 21.096C46.472 21.16 44.072 21.32 43.88 21.576C43.816 21.64 42.792 25.448 40.808 33L38.024 44.328C38.024 44.392 39.432 44.424 42.248 44.424C45.768 44.36 48.04 44.136 49.064 43.752C50.984 43.112 52.392 41.8 53.288 39.816C53.736 38.856 54.216 37.416 54.728 35.496C55.048 34.28 55.304 33.608 55.496 33.48L55.784 33.192H57.704C59.24 33.192 60.136 33.416 60.392 33.864C60.456 34.12 59.432 38.568 57.32 47.208C55.08 55.976 53.928 60.392 53.864 60.456C53.736 60.84 52.872 61.032 51.272 61.032H49.352L48.968 60.744C48.712 60.424 48.744 59.528 49.064 58.056C49.512 56.008 49.736 54.408 49.736 53.256L49.544 52.008C49.224 51.112 48.424 50.504 47.144 50.184C46.056 49.928 43.784 49.8 40.328 49.8H36.68L33.512 62.376C31.4 70.888 30.344 75.176 30.344 75.24C30.344 75.432 30.536 75.528 30.92 75.528H45.224C50.408 75.144 54.408 73.768 57.224 71.4C59.976 69.032 62.824 63.912 65.768 56.04C66.152 55.016 66.472 54.376 66.728 54.12L67.016 53.832H69.032H71.048L71.336 54.12C71.592 54.376 71.592 54.888 71.336 55.656C71.016 56.68 69.48 60.712 66.728 67.752C63.4 76.328 61.736 80.584 61.736 80.52C61.608 80.776 60.616 80.904 58.76 80.904C56.712 80.968 49.064 81 35.816 81H10.568L10.184 80.712C9.992 80.392 9.896 80.136 9.896 79.944C9.896 78.92 10.216 77.672 10.856 76.2C11.624 75.816 12.84 75.624 14.504 75.624C17.384 75.56 19.016 75.432 19.4 75.24C19.72 75.048 19.976 74.664 20.168 74.088C20.616 72.872 22.824 64.2 26.792 48.072C31.208 30.408 33.384 21.576 33.32 21.576C33 21.256 31.048 21.096 27.464 21.096H25.544L25.16 20.808C24.84 20.424 24.872 19.528 25.256 18.12C25.64 16.776 25.96 16.04 26.216 15.912ZM91.1825 38.664C93.3585 38.344 95.5665 38.664 97.8065 39.624C99.5345 40.392 100.847 41.48 101.743 42.888L102.127 43.368L102.511 42.792C104.111 40.872 106.063 39.56 108.367 38.856C111.183 38.088 113.743 38.6 116.047 40.392C116.495 40.712 116.879 41.064 117.199 41.448C117.967 42.344 118.479 43.4 118.735 44.616C119.375 46.728 119.215 48.808 118.255 50.856C117.231 53.032 115.503 54.248 113.071 54.504C111.023 54.696 109.615 53.96 108.847 52.296C108.655 51.976 108.527 51.464 108.463 50.76C108.463 49.672 108.687 48.68 109.135 47.784C109.647 46.632 110.575 45.704 111.919 45C112.495 44.744 112.783 44.552 112.783 44.424C112.527 44.04 112.079 43.688 111.439 43.368C111.119 43.24 110.639 43.176 109.999 43.176C109.359 43.176 108.879 43.24 108.559 43.368C106.959 44.264 105.711 45.96 104.815 48.456L99.2465 70.632C98.7985 72.616 98.7025 74.088 98.9585 75.048C99.4705 76.776 100.847 77.608 103.087 77.544C103.855 77.48 104.591 77.32 105.295 77.064C107.855 76.104 109.967 73.896 111.631 70.44C112.079 69.544 112.431 68.648 112.687 67.752C112.943 66.92 113.231 66.472 113.551 66.408C113.743 66.344 114.415 66.312 115.567 66.312C116.975 66.312 117.743 66.376 117.871 66.504C118.191 66.76 118.223 67.304 117.967 68.136C117.455 70.248 116.559 72.2 115.279 73.992C111.951 78.856 107.887 81.544 103.087 82.056C102.959 82.056 102.831 82.056 102.703 82.056C98.9905 82.248 96.0145 81.032 93.7745 78.408C93.6465 78.344 93.5505 78.248 93.4865 78.12C93.1025 77.672 92.8785 77.416 92.8145 77.352L92.2385 78.024C91.3425 79.048 90.4465 79.816 89.5505 80.328C87.6305 81.544 85.7425 82.12 83.8865 82.056C82.6705 81.992 81.4545 81.672 80.2385 81.096C78.1905 80.136 76.8465 78.408 76.2065 75.912C75.5025 72.712 76.0785 70.056 77.9345 67.944C79.7265 66.216 81.6785 65.672 83.7905 66.312C84.5585 66.568 85.1665 66.952 85.6145 67.464C86.8305 68.808 86.8945 70.6 85.8065 72.84C85.2305 74.056 84.3345 74.984 83.1185 75.624C82.5425 75.944 82.2225 76.104 82.1585 76.104C82.1585 76.36 82.6385 76.744 83.5985 77.256C83.8545 77.384 84.3025 77.448 84.9425 77.448C85.5825 77.448 86.0625 77.384 86.3825 77.256C87.9825 76.424 89.1985 74.76 90.0305 72.264L95.7905 49.608C95.9185 48.968 95.9825 48.072 95.9825 46.92C95.9825 46.024 95.9185 45.416 95.7905 45.096C95.0225 43.432 93.3905 42.824 90.8945 43.272C88.5265 43.72 86.4145 45.32 84.5585 48.072C83.4705 49.8 82.6705 51.592 82.1585 53.448C81.9665 53.832 81.8385 54.056 81.7745 54.12C81.6465 54.248 80.8785 54.312 79.4705 54.312H77.3585L77.0705 54.024C76.8785 53.832 76.7825 53.576 76.7825 53.256C77.0385 51.592 77.9345 49.576 79.4705 47.208C79.5345 47.08 79.5985 46.952 79.6625 46.824C82.4785 42.408 86.0945 39.72 90.5105 38.76C90.7665 38.76 90.9905 38.728 91.1825 38.664ZM145.314 38.664L147.234 38.568H147.33C148.738 38.632 149.986 38.952 151.074 39.528C152.162 40.04 153.122 40.744 153.954 41.64L154.722 42.408L155.298 41.928C156.834 40.456 158.498 40.072 160.29 40.776C161.186 41.096 161.794 41.64 162.114 42.408C162.37 43.112 162.306 44.36 161.922 46.152C161.602 47.56 160.61 51.528 158.946 58.056C156.642 67.4 155.458 72.264 155.394 72.648C155.138 74.44 155.106 75.688 155.298 76.392C155.426 76.712 155.618 76.968 155.874 77.16C156.066 77.352 156.354 77.448 156.738 77.448C157.186 77.448 157.538 77.384 157.794 77.256C159.01 76.36 160.258 73.448 161.538 68.52C161.858 67.304 162.114 66.632 162.306 66.504C162.434 66.376 163.202 66.312 164.61 66.312C166.018 66.312 166.818 66.376 167.01 66.504C167.138 66.632 167.202 66.888 167.202 67.272C167.202 67.656 167.042 68.424 166.722 69.576C164.354 77.64 160.994 81.8 156.642 82.056C153.378 82.248 150.754 81.128 148.77 78.696C148.45 78.312 148.162 77.896 147.906 77.448C147.778 77.064 147.682 76.872 147.618 76.872L146.946 77.448C144.706 79.432 142.498 80.744 140.322 81.384C136.162 82.792 132.418 82.152 129.09 79.464C128.706 79.144 128.354 78.792 128.034 78.408C127.074 77.448 126.274 76.296 125.634 74.952C123.714 71.048 123.33 66.472 124.482 61.224C125.954 54.248 129.282 48.488 134.466 43.944C137.922 40.936 141.538 39.176 145.314 38.664ZM147.33 43.176C144.706 42.728 142.178 43.976 139.746 46.92C139.106 47.752 138.53 48.648 138.018 49.608C137.058 51.464 135.906 55.112 134.562 60.552C133.73 63.624 133.122 66.312 132.738 68.616C132.482 70.792 132.482 72.456 132.738 73.608C133.378 75.848 134.626 77.128 136.482 77.448C137.57 77.64 138.882 77.416 140.418 76.776C142.722 75.496 144.898 73.352 146.946 70.344L147.426 69.672L149.826 60.168L152.226 50.568L152.034 49.8C151.458 46.152 150.018 43.976 147.714 43.272C147.586 43.208 147.458 43.176 147.33 43.176ZM179.945 38.76C181.033 38.44 182.409 38.472 184.073 38.856C185.865 39.368 187.273 40.2 188.297 41.352C189.001 42.056 189.609 43.016 190.121 44.232L190.313 44.616L191.081 43.848C193.641 41.416 196.361 39.816 199.241 39.048C202.953 38.088 206.313 38.312 209.321 39.72C210.409 40.232 211.369 40.904 212.201 41.736C212.777 42.376 213.193 43.016 213.449 43.656L214.121 45.096V45.384L215.081 44.424C218.025 41.288 221.353 39.432 225.065 38.856C227.369 38.408 229.481 38.44 231.401 38.952C233.897 39.464 235.785 40.552 237.065 42.216C237.769 43.112 238.345 44.296 238.793 45.768C238.921 46.344 238.985 47.4 238.985 48.936C238.985 50.6 238.953 51.656 238.889 52.104C238.185 55.88 236.457 61.544 233.705 69.096C232.361 72.808 231.721 75.24 231.785 76.392C231.849 77.096 232.201 77.48 232.841 77.544C234.377 77.672 235.785 76.84 237.065 75.048C238.345 73.256 239.369 70.92 240.137 68.04C240.457 67.016 240.777 66.472 241.097 66.408C241.289 66.344 241.961 66.312 243.113 66.312C244.521 66.312 245.289 66.376 245.417 66.504C245.801 66.76 245.801 67.432 245.417 68.52C244.201 72.808 242.281 76.2 239.657 78.696C238.825 79.528 237.801 80.296 236.585 81C233.769 82.408 231.017 82.472 228.329 81.192C227.177 80.616 226.313 79.944 225.737 79.176C224.521 77.704 223.913 75.976 223.913 73.992C223.913 72.776 224.393 70.792 225.353 68.04C228.489 59.592 230.249 53.608 230.633 50.088C230.889 48.552 230.857 47.112 230.537 45.768C230.089 44.488 229.449 43.688 228.617 43.368C227.977 43.048 226.985 42.984 225.641 43.176C221.417 43.816 217.769 47.016 214.697 52.776L213.929 54.12L210.857 66.312C208.809 74.568 207.689 78.856 207.497 79.176C206.665 80.84 205.289 81.8 203.369 82.056C202.857 82.12 202.377 82.088 201.929 81.96C200.329 81.512 199.465 80.52 199.337 78.984C199.337 78.472 200.361 74.056 202.409 65.736C204.585 57.032 205.705 52.488 205.769 52.104C206.089 50.568 206.249 49.128 206.249 47.784C206.185 46.056 205.769 44.808 205.001 44.04C204.809 43.72 204.521 43.496 204.137 43.368C203.881 43.24 203.337 43.176 202.505 43.176C201.417 43.176 200.393 43.336 199.433 43.656C197.641 44.232 195.977 45.288 194.441 46.824C192.905 48.36 191.433 50.408 190.025 52.968L189.353 54.12L186.377 66.312C184.201 74.888 182.921 79.432 182.537 79.944C182.473 80.072 182.313 80.264 182.057 80.52C180.713 81.864 179.145 82.344 177.353 81.96C175.753 81.512 174.889 80.52 174.761 78.984C174.761 78.408 175.977 73.224 178.409 63.432C180.905 53.768 182.217 48.488 182.345 47.592C182.537 45.928 182.473 44.712 182.153 43.944C181.833 43.368 181.385 43.08 180.809 43.08C180.425 43.08 180.073 43.208 179.753 43.464C179.241 43.784 178.697 44.52 178.121 45.672C177.481 47.208 176.681 49.8 175.721 53.448C175.529 53.832 175.401 54.056 175.337 54.12C175.209 54.248 174.441 54.312 173.033 54.312H170.921L170.633 54.024C170.377 53.768 170.409 53 170.729 51.72C172.393 45.704 174.505 41.8 177.065 40.008C178.281 39.24 179.241 38.824 179.945 38.76ZM263.308 15.72L263.596 15.432H279.052L294.604 15.528L295.948 15.72C300.172 16.36 303.564 17.8 306.124 20.04C308.684 22.088 310.252 24.712 310.828 27.912C311.084 29.64 311.02 31.368 310.636 33.096C309.548 37.64 306.444 41.64 301.324 45.096C299.212 46.44 297.004 47.528 294.7 48.36C294.188 48.616 293.9 48.744 293.836 48.744L294.604 49.512C295.948 50.6 297.1 52.04 298.06 53.832C298.764 55.496 299.148 57.16 299.212 58.824C299.212 60.168 299.02 62.44 298.635 65.64C298.316 68.84 298.156 71.336 298.156 73.128C298.156 74.664 298.22 75.656 298.348 76.104C298.732 77.512 299.724 78.344 301.324 78.6C302.156 78.6 302.828 78.376 303.34 77.928C304.3 77.288 305.196 75.528 306.028 72.648C306.284 71.688 306.636 71.144 307.084 71.016C307.34 70.952 307.98 70.92 309.004 70.92C310.348 70.92 311.148 71.08 311.404 71.4C311.66 71.72 311.596 72.424 311.212 73.512C309.612 78.248 307.116 81.288 303.724 82.632C303.276 82.824 302.828 82.952 302.38 83.016C301.932 83.08 301.132 83.112 299.98 83.112C293.388 82.792 289.164 80.712 287.308 76.872C286.796 75.912 286.508 74.664 286.444 73.128C286.444 71.912 286.476 71.144 286.54 70.824C286.86 69.352 287.308 67.368 287.884 64.872C288.972 60.52 289.452 57.768 289.324 56.616C289.068 53.608 287.724 51.656 285.292 50.76L284.62 50.472H278.956H273.388L273.292 50.856C273.292 50.728 272.268 54.824 270.22 63.144C268.236 71.144 267.276 75.144 267.34 75.144C267.66 75.464 269.612 75.624 273.196 75.624H275.116L275.5 75.912C275.692 76.168 275.788 76.424 275.788 76.68C275.788 77.704 275.468 78.952 274.828 80.424C274.636 80.808 273.996 80.968 272.908 80.904C272.652 80.904 272.108 80.904 271.276 80.904C261.676 80.648 254.188 80.68 248.812 81H247.756L247.468 80.712C247.212 80.456 247.084 80.2 247.084 79.944C247.084 78.92 247.404 77.672 248.044 76.2C248.812 75.816 250.028 75.624 251.692 75.624C254.572 75.56 256.204 75.432 256.588 75.24C256.908 75.048 257.164 74.664 257.356 74.088C257.804 72.808 260.012 64.168 263.98 48.168C268.396 30.504 270.604 21.608 270.604 21.48C270.604 21.288 270.54 21.192 270.411 21.192C270.028 21.064 268.524 20.936 265.9 20.808C263.66 20.808 262.412 20.584 262.156 20.136C262.092 19.944 262.188 19.208 262.444 17.928C262.764 16.712 263.052 15.976 263.308 15.72ZM293.164 21C292.78 20.936 290.828 20.872 287.308 20.808C283.916 20.808 281.932 20.872 281.356 21C281.036 21.128 280.844 21.256 280.78 21.384L274.54 45.96H280.108C284.46 45.896 287.308 45.704 288.652 45.384C292.364 44.552 295.084 42.728 296.812 39.912C297.644 38.504 298.444 36.2 299.212 33C299.788 30.632 300.076 28.808 300.076 27.528C300.076 25.8 299.564 24.424 298.54 23.4C297.9 22.76 297.324 22.344 296.812 22.152C295.98 21.704 294.764 21.32 293.164 21ZM342.845 38.664L344.765 38.568H344.861C346.269 38.632 347.517 38.952 348.605 39.528C349.693 40.04 350.653 40.744 351.485 41.64L352.253 42.408L352.829 41.928C354.365 40.456 356.029 40.072 357.821 40.776C358.717 41.096 359.325 41.64 359.645 42.408C359.901 43.112 359.837 44.36 359.453 46.152C359.133 47.56 358.141 51.528 356.477 58.056C354.173 67.4 352.989 72.264 352.925 72.648C352.669 74.44 352.637 75.688 352.829 76.392C352.957 76.712 353.149 76.968 353.405 77.16C353.597 77.352 353.885 77.448 354.269 77.448C354.717 77.448 355.069 77.384 355.325 77.256C356.541 76.36 357.789 73.448 359.069 68.52C359.389 67.304 359.645 66.632 359.837 66.504C359.965 66.376 360.733 66.312 362.141 66.312C363.549 66.312 364.349 66.376 364.541 66.504C364.669 66.632 364.733 66.888 364.733 67.272C364.733 67.656 364.573 68.424 364.253 69.576C361.885 77.64 358.525 81.8 354.173 82.056C350.909 82.248 348.285 81.128 346.301 78.696C345.981 78.312 345.693 77.896 345.437 77.448C345.309 77.064 345.213 76.872 345.149 76.872L344.477 77.448C342.237 79.432 340.029 80.744 337.853 81.384C333.693 82.792 329.949 82.152 326.621 79.464C326.237 79.144 325.885 78.792 325.565 78.408C324.605 77.448 323.805 76.296 323.165 74.952C321.245 71.048 320.861 66.472 322.013 61.224C323.485 54.248 326.813 48.488 331.997 43.944C335.453 40.936 339.069 39.176 342.845 38.664ZM344.861 43.176C342.237 42.728 339.709 43.976 337.277 46.92C336.637 47.752 336.061 48.648 335.549 49.608C334.589 51.464 333.437 55.112 332.093 60.552C331.261 63.624 330.653 66.312 330.269 68.616C330.013 70.792 330.013 72.456 330.269 73.608C330.909 75.848 332.157 77.128 334.013 77.448C335.101 77.64 336.413 77.416 337.949 76.776C340.253 75.496 342.429 73.352 344.477 70.344L344.957 69.672L347.357 60.168L349.757 50.568L349.565 49.8C348.989 46.152 347.549 43.976 345.245 43.272C345.117 43.208 344.989 43.176 344.861 43.176ZM377.476 38.76C378.564 38.44 379.94 38.472 381.604 38.856C383.14 39.24 384.452 39.944 385.54 40.968C386.5 41.928 387.14 42.856 387.46 43.752L387.844 44.52L388.612 43.848C391.364 41.096 394.5 39.432 398.02 38.856C400.324 38.408 402.436 38.44 404.356 38.952C406.852 39.464 408.74 40.552 410.02 42.216C410.724 43.112 411.3 44.296 411.748 45.768C411.876 46.344 411.94 47.4 411.94 48.936C411.94 50.6 411.908 51.656 411.844 52.104C411.14 55.752 409.412 61.416 406.66 69.096C405.636 71.848 405.028 73.736 404.836 74.76C404.644 76.36 404.836 77.256 405.412 77.448C406.18 77.704 407.076 77.544 408.1 76.968C410.084 75.752 411.748 72.776 413.092 68.04C413.412 67.016 413.732 66.472 414.052 66.408C414.244 66.344 414.916 66.312 416.068 66.312C417.476 66.312 418.244 66.376 418.372 66.504C418.756 66.76 418.756 67.432 418.372 68.52C417.668 71.016 416.612 73.352 415.204 75.528C412.644 79.368 409.732 81.512 406.468 81.96C405.316 82.216 404.132 82.152 402.916 81.768C401.06 81.384 399.652 80.52 398.692 79.176C397.476 77.704 396.868 75.976 396.868 73.992C396.868 72.776 397.348 70.792 398.308 68.04C401.444 59.592 403.204 53.608 403.588 50.088C403.844 48.552 403.812 47.112 403.492 45.768C403.044 44.488 402.404 43.688 401.572 43.368C400.932 43.048 399.94 42.984 398.596 43.176C394.372 43.816 390.724 47.016 387.652 52.776L386.884 54.12L383.812 66.312C381.764 74.568 380.644 78.856 380.452 79.176C379.62 80.84 378.244 81.8 376.324 82.056C375.812 82.12 375.332 82.088 374.884 81.96C373.284 81.512 372.42 80.52 372.292 78.984C372.292 78.408 373.508 73.224 375.94 63.432C378.436 53.768 379.748 48.488 379.876 47.592C380.068 45.928 380.004 44.712 379.684 43.944C379.428 43.496 379.012 43.208 378.436 43.08C378.052 43.08 377.732 43.176 377.476 43.368C376.516 43.944 375.62 45.512 374.788 48.072C374.468 48.968 373.956 50.76 373.252 53.448C373.06 53.832 372.932 54.056 372.868 54.12C372.74 54.248 371.972 54.312 370.564 54.312H368.452L368.164 54.024C367.972 53.832 367.876 53.576 367.876 53.256L368.452 51.048C370.052 45.48 372.1 41.8 374.596 40.008C375.62 39.368 376.58 38.952 377.476 38.76ZM445.495 38.76C449.143 38.184 452.151 39.112 454.519 41.544L455.287 42.408L455.767 41.928C456.855 40.84 458.103 40.36 459.511 40.488C460.983 40.616 462.007 41.256 462.583 42.408C462.839 43.048 462.775 44.168 462.391 45.768C462.071 47.432 460.407 54.216 457.399 66.12C453.687 80.84 451.799 88.264 451.735 88.392C451.415 89.608 450.807 90.856 449.911 92.136C449.207 93.224 448.087 94.408 446.551 95.688C444.759 97.16 442.647 98.344 440.215 99.24C438.807 99.752 437.303 100.136 435.703 100.392C434.423 100.648 432.407 100.712 429.655 100.584C423.831 100.2 420.407 98.6 419.383 95.784C419.255 95.144 419.191 94.6 419.191 94.152C419.191 91.336 420.439 89.352 422.935 88.2C423.319 88.072 423.703 87.944 424.087 87.816C426.199 87.304 427.799 87.752 428.887 89.16C429.079 89.416 429.239 89.704 429.367 90.024C430.007 91.816 429.655 93.608 428.311 95.4C428.055 95.72 427.991 95.88 428.119 95.88C428.375 96.072 429.975 96.168 432.919 96.168C434.327 96.104 435.607 95.816 436.759 95.304C438.999 94.28 440.823 92.584 442.231 90.216C442.359 90.024 442.487 89.8 442.615 89.544C442.999 88.712 443.671 86.472 444.631 82.824L445.879 77.928L444.919 78.504C441.783 80.488 438.647 81.288 435.511 80.904C430.647 80.136 427.351 77.32 425.623 72.456C425.047 70.984 424.695 69.416 424.567 67.752C424.311 66.088 424.375 64.328 424.759 62.472C425.847 55.304 428.983 49.32 434.167 44.52C436.599 42.28 439.223 40.648 442.039 39.624C443.127 39.24 444.279 38.952 445.495 38.76ZM447.799 43.176C445.303 42.728 442.903 43.784 440.599 46.344C439.767 47.24 439.095 48.264 438.583 49.416C437.623 51.208 436.407 54.92 434.935 60.552C433.847 65.096 433.303 68.392 433.303 70.44C433.303 71.848 433.527 73 433.975 73.896C434.871 75.752 436.375 76.616 438.487 76.488C441.495 76.168 444.535 73.864 447.607 69.576L448.183 68.712L450.391 59.592C451.927 53.448 452.663 50.056 452.599 49.416C452.535 49.352 452.439 49.032 452.311 48.456C451.863 46.792 451.159 45.48 450.199 44.52C449.559 43.816 448.759 43.368 447.799 43.176ZM491.667 38.664C493.651 38.408 495.443 38.472 497.043 38.856C498.003 39.112 498.995 39.464 500.019 39.912C502.323 41.064 503.795 42.76 504.435 45C504.563 45.448 504.627 46.184 504.627 47.208C504.627 48.36 504.563 49.16 504.435 49.608C503.859 51.528 502.931 53.192 501.651 54.6C499.859 56.392 497.171 57.768 493.587 58.728C490.643 59.432 486.643 59.88 481.587 60.072H479.283L479.091 60.648C478.451 64.168 478.131 65.864 478.131 65.736C477.811 68.04 477.779 70.088 478.035 71.88C478.739 75.272 480.627 77.128 483.699 77.448C483.955 77.512 484.243 77.544 484.563 77.544C487.891 77.544 491.091 76.616 494.163 74.76C495.699 73.864 497.267 72.616 498.867 71.016C500.019 69.864 500.819 69.352 501.267 69.48L502.611 70.824C503.507 71.848 503.859 72.584 503.667 73.032C503.347 73.608 502.259 74.76 500.403 76.488C497.331 78.856 493.747 80.488 489.651 81.384C488.051 81.768 486.163 81.96 483.987 81.96C482.003 81.96 480.339 81.736 478.995 81.288C477.075 80.584 475.347 79.496 473.811 78.024C472.659 76.808 471.763 75.496 471.123 74.088C469.907 71.72 469.203 68.904 469.011 65.64C468.819 59.112 470.707 53.352 474.675 48.36C475.891 46.824 477.235 45.512 478.707 44.424C482.547 41.288 486.867 39.368 491.667 38.664ZM494.835 43.272C492.147 42.76 489.491 43.4 486.867 45.192C484.563 46.664 482.771 49.032 481.491 52.296C480.787 54.024 480.435 55.08 480.435 55.464C480.435 55.72 482.739 55.656 487.347 55.272C487.795 55.272 488.179 55.24 488.499 55.176C492.723 54.728 495.635 53.544 497.235 51.624C497.939 50.728 498.387 49.672 498.579 48.456C498.899 46.152 498.067 44.552 496.083 43.656C495.699 43.464 495.283 43.336 494.835 43.272ZM519.695 38.76C520.783 38.44 522.159 38.472 523.823 38.856C524.847 39.112 525.871 39.592 526.895 40.296C527.919 41.064 528.655 41.864 529.103 42.696L529.487 43.272L530.351 42.408C531.567 41.32 532.783 40.456 533.999 39.816C536.303 38.664 538.671 38.28 541.103 38.664C545.391 39.368 548.079 41.384 549.167 44.712C549.487 45.672 549.615 46.696 549.551 47.784C549.359 50.216 548.527 52.008 547.055 53.16C544.879 54.76 542.863 55.048 541.007 54.024C540.239 53.64 539.695 53.064 539.375 52.296C539.183 51.976 539.055 51.464 538.991 50.76C538.991 49.672 539.215 48.68 539.663 47.784C540.367 46.504 541.231 45.64 542.255 45.192C542.639 45 542.831 44.84 542.831 44.712C542.639 44.328 542.031 43.944 541.007 43.56C539.663 42.984 538.255 42.92 536.783 43.368C534.479 44.2 532.271 46.696 530.159 50.856C529.903 51.368 528.623 56.136 526.319 65.16C524.015 74.44 522.671 79.368 522.287 79.944C522.223 80.072 522.063 80.264 521.807 80.52C520.463 81.864 518.895 82.344 517.103 81.96C515.503 81.512 514.639 80.52 514.511 78.984C514.511 78.408 515.727 73.224 518.159 63.432C520.655 53.768 521.967 48.488 522.095 47.592C522.287 45.928 522.223 44.712 521.903 43.944C521.647 43.496 521.231 43.208 520.655 43.08C520.271 43.08 519.951 43.176 519.695 43.368C519.055 43.816 518.447 44.584 517.871 45.672C517.231 47.208 516.431 49.8 515.471 53.448C515.279 53.832 515.151 54.056 515.087 54.12C514.959 54.248 514.191 54.312 512.783 54.312H510.671L510.383 54.024C510.191 53.832 510.095 53.576 510.095 53.256L510.671 50.952C512.335 45.384 514.383 41.736 516.815 40.008C517.839 39.368 518.799 38.952 519.695 38.76Z" fill="black" fill-opacity="0.16"/>
<path d="M21.216 11.912C21.344 11.784 29.632 11.72 46.08 11.72H70.656L71.04 12.008C71.232 12.264 71.328 12.52 71.328 12.776L68.16 35.144C67.968 35.336 67.84 35.464 67.776 35.528C67.648 35.656 66.944 35.72 65.664 35.72C64.32 35.72 63.552 35.656 63.36 35.528C63.04 35.336 62.944 34.472 63.072 32.936C63.456 30.312 63.648 28.072 63.648 26.216C63.648 23.464 63.296 21.576 62.592 20.552C61.888 19.4 60.608 18.536 58.752 17.96C56.64 17.384 52.416 17.096 46.08 17.096C41.472 17.16 39.072 17.32 38.88 17.576C38.816 17.64 37.792 21.448 35.808 29L33.024 40.328C33.024 40.392 34.432 40.424 37.248 40.424C40.768 40.36 43.04 40.136 44.064 39.752C45.984 39.112 47.392 37.8 48.288 35.816C48.736 34.856 49.216 33.416 49.728 31.496C50.048 30.28 50.304 29.608 50.496 29.48L50.784 29.192H52.704C54.24 29.192 55.136 29.416 55.392 29.864C55.456 30.12 54.432 34.568 52.32 43.208C50.08 51.976 48.928 56.392 48.864 56.456C48.736 56.84 47.872 57.032 46.272 57.032H44.352L43.968 56.744C43.712 56.424 43.744 55.528 44.064 54.056C44.512 52.008 44.736 50.408 44.736 49.256L44.544 48.008C44.224 47.112 43.424 46.504 42.144 46.184C41.056 45.928 38.784 45.8 35.328 45.8H31.68L28.512 58.376C26.4 66.888 25.344 71.176 25.344 71.24C25.344 71.432 25.536 71.528 25.92 71.528H40.224C45.408 71.144 49.408 69.768 52.224 67.4C54.976 65.032 57.824 59.912 60.768 52.04C61.152 51.016 61.472 50.376 61.728 50.12L62.016 49.832H64.032H66.048L66.336 50.12C66.592 50.376 66.592 50.888 66.336 51.656C66.016 52.68 64.48 56.712 61.728 63.752C58.4 72.328 56.736 76.584 56.736 76.52C56.608 76.776 55.616 76.904 53.76 76.904C51.712 76.968 44.064 77 30.816 77H5.568L5.184 76.712C4.992 76.392 4.896 76.136 4.896 75.944C4.896 74.92 5.216 73.672 5.856 72.2C6.624 71.816 7.84 71.624 9.504 71.624C12.384 71.56 14.016 71.432 14.4 71.24C14.72 71.048 14.976 70.664 15.168 70.088C15.616 68.872 17.824 60.2 21.792 44.072C26.208 26.408 28.384 17.576 28.32 17.576C28 17.256 26.048 17.096 22.464 17.096H20.544L20.16 16.808C19.84 16.424 19.872 15.528 20.256 14.12C20.64 12.776 20.96 12.04 21.216 11.912ZM86.1825 34.664C88.3585 34.344 90.5665 34.664 92.8065 35.624C94.5345 36.392 95.8465 37.48 96.7425 38.888L97.1265 39.368L97.5105 38.792C99.1105 36.872 101.063 35.56 103.367 34.856C106.183 34.088 108.743 34.6 111.047 36.392C111.495 36.712 111.879 37.064 112.199 37.448C112.967 38.344 113.479 39.4 113.735 40.616C114.375 42.728 114.215 44.808 113.255 46.856C112.231 49.032 110.503 50.248 108.071 50.504C106.023 50.696 104.615 49.96 103.847 48.296C103.655 47.976 103.527 47.464 103.463 46.76C103.463 45.672 103.687 44.68 104.135 43.784C104.647 42.632 105.575 41.704 106.919 41C107.495 40.744 107.783 40.552 107.783 40.424C107.527 40.04 107.079 39.688 106.439 39.368C106.119 39.24 105.639 39.176 104.999 39.176C104.359 39.176 103.879 39.24 103.559 39.368C101.959 40.264 100.711 41.96 99.8145 44.456L94.2465 66.632C93.7985 68.616 93.7025 70.088 93.9585 71.048C94.4705 72.776 95.8465 73.608 98.0865 73.544C98.8545 73.48 99.5905 73.32 100.295 73.064C102.855 72.104 104.967 69.896 106.631 66.44C107.079 65.544 107.431 64.648 107.687 63.752C107.943 62.92 108.231 62.472 108.551 62.408C108.743 62.344 109.415 62.312 110.567 62.312C111.975 62.312 112.743 62.376 112.871 62.504C113.191 62.76 113.223 63.304 112.967 64.136C112.455 66.248 111.559 68.2 110.279 69.992C106.951 74.856 102.887 77.544 98.0865 78.056C97.9585 78.056 97.8305 78.056 97.7025 78.056C93.9905 78.248 91.0145 77.032 88.7745 74.408C88.6465 74.344 88.5505 74.248 88.4865 74.12C88.1025 73.672 87.8785 73.416 87.8145 73.352L87.2385 74.024C86.3425 75.048 85.4465 75.816 84.5505 76.328C82.6305 77.544 80.7425 78.12 78.8865 78.056C77.6705 77.992 76.4545 77.672 75.2385 77.096C73.1905 76.136 71.8465 74.408 71.2065 71.912C70.5025 68.712 71.0785 66.056 72.9345 63.944C74.7265 62.216 76.6785 61.672 78.7905 62.312C79.5585 62.568 80.1665 62.952 80.6145 63.464C81.8305 64.808 81.8945 66.6 80.8065 68.84C80.2305 70.056 79.3345 70.984 78.1185 71.624C77.5425 71.944 77.2225 72.104 77.1585 72.104C77.1585 72.36 77.6385 72.744 78.5985 73.256C78.8545 73.384 79.3025 73.448 79.9425 73.448C80.5825 73.448 81.0625 73.384 81.3825 73.256C82.9825 72.424 84.1985 70.76 85.0305 68.264L90.7905 45.608C90.9185 44.968 90.9825 44.072 90.9825 42.92C90.9825 42.024 90.9185 41.416 90.7905 41.096C90.0225 39.432 88.3905 38.824 85.8945 39.272C83.5265 39.72 81.4145 41.32 79.5585 44.072C78.4705 45.8 77.6705 47.592 77.1585 49.448C76.9665 49.832 76.8385 50.056 76.7745 50.12C76.6465 50.248 75.8785 50.312 74.4705 50.312H72.3585L72.0705 50.024C71.8785 49.832 71.7825 49.576 71.7825 49.256C72.0385 47.592 72.9345 45.576 74.4705 43.208C74.5345 43.08 74.5985 42.952 74.6625 42.824C77.4785 38.408 81.0945 35.72 85.5105 34.76C85.7665 34.76 85.9905 34.728 86.1825 34.664ZM140.314 34.664L142.234 34.568H142.33C143.738 34.632 144.986 34.952 146.074 35.528C147.162 36.04 148.122 36.744 148.954 37.64L149.722 38.408L150.298 37.928C151.834 36.456 153.498 36.072 155.29 36.776C156.186 37.096 156.794 37.64 157.114 38.408C157.37 39.112 157.306 40.36 156.922 42.152C156.602 43.56 155.61 47.528 153.946 54.056C151.642 63.4 150.458 68.264 150.394 68.648C150.138 70.44 150.106 71.688 150.298 72.392C150.426 72.712 150.618 72.968 150.874 73.16C151.066 73.352 151.354 73.448 151.738 73.448C152.186 73.448 152.538 73.384 152.794 73.256C154.01 72.36 155.258 69.448 156.538 64.52C156.858 63.304 157.114 62.632 157.306 62.504C157.434 62.376 158.202 62.312 159.61 62.312C161.018 62.312 161.818 62.376 162.01 62.504C162.138 62.632 162.202 62.888 162.202 63.272C162.202 63.656 162.042 64.424 161.722 65.576C159.354 73.64 155.994 77.8 151.642 78.056C148.378 78.248 145.754 77.128 143.77 74.696C143.45 74.312 143.162 73.896 142.906 73.448C142.778 73.064 142.682 72.872 142.618 72.872L141.946 73.448C139.706 75.432 137.498 76.744 135.322 77.384C131.162 78.792 127.418 78.152 124.09 75.464C123.706 75.144 123.354 74.792 123.034 74.408C122.074 73.448 121.274 72.296 120.634 70.952C118.714 67.048 118.33 62.472 119.482 57.224C120.954 50.248 124.282 44.488 129.466 39.944C132.922 36.936 136.538 35.176 140.314 34.664ZM142.33 39.176C139.706 38.728 137.178 39.976 134.746 42.92C134.106 43.752 133.53 44.648 133.018 45.608C132.058 47.464 130.906 51.112 129.562 56.552C128.73 59.624 128.122 62.312 127.738 64.616C127.482 66.792 127.482 68.456 127.738 69.608C128.378 71.848 129.626 73.128 131.482 73.448C132.57 73.64 133.882 73.416 135.418 72.776C137.722 71.496 139.898 69.352 141.946 66.344L142.426 65.672L144.826 56.168L147.226 46.568L147.034 45.8C146.458 42.152 145.018 39.976 142.714 39.272C142.586 39.208 142.458 39.176 142.33 39.176ZM174.945 34.76C176.033 34.44 177.409 34.472 179.073 34.856C180.865 35.368 182.273 36.2 183.297 37.352C184.001 38.056 184.609 39.016 185.121 40.232L185.313 40.616L186.081 39.848C188.641 37.416 191.361 35.816 194.241 35.048C197.953 34.088 201.313 34.312 204.321 35.72C205.409 36.232 206.369 36.904 207.201 37.736C207.777 38.376 208.193 39.016 208.449 39.656L209.121 41.096V41.384L210.081 40.424C213.025 37.288 216.353 35.432 220.065 34.856C222.369 34.408 224.481 34.44 226.401 34.952C228.897 35.464 230.785 36.552 232.065 38.216C232.769 39.112 233.345 40.296 233.793 41.768C233.921 42.344 233.985 43.4 233.985 44.936C233.985 46.6 233.953 47.656 233.889 48.104C233.185 51.88 231.457 57.544 228.705 65.096C227.361 68.808 226.721 71.24 226.785 72.392C226.849 73.096 227.201 73.48 227.841 73.544C229.377 73.672 230.785 72.84 232.065 71.048C233.345 69.256 234.369 66.92 235.137 64.04C235.457 63.016 235.777 62.472 236.097 62.408C236.289 62.344 236.961 62.312 238.113 62.312C239.521 62.312 240.289 62.376 240.417 62.504C240.801 62.76 240.801 63.432 240.417 64.52C239.201 68.808 237.281 72.2 234.657 74.696C233.825 75.528 232.801 76.296 231.585 77C228.769 78.408 226.017 78.472 223.329 77.192C222.177 76.616 221.313 75.944 220.737 75.176C219.521 73.704 218.913 71.976 218.913 69.992C218.913 68.776 219.393 66.792 220.353 64.04C223.489 55.592 225.249 49.608 225.633 46.088C225.889 44.552 225.857 43.112 225.537 41.768C225.089 40.488 224.449 39.688 223.617 39.368C222.977 39.048 221.985 38.984 220.641 39.176C216.417 39.816 212.769 43.016 209.697 48.776L208.929 50.12L205.857 62.312C203.809 70.568 202.689 74.856 202.497 75.176C201.665 76.84 200.289 77.8 198.369 78.056C197.857 78.12 197.377 78.088 196.929 77.96C195.329 77.512 194.465 76.52 194.337 74.984C194.337 74.472 195.361 70.056 197.409 61.736C199.585 53.032 200.705 48.488 200.769 48.104C201.089 46.568 201.249 45.128 201.249 43.784C201.185 42.056 200.769 40.808 200.001 40.04C199.809 39.72 199.521 39.496 199.137 39.368C198.881 39.24 198.337 39.176 197.505 39.176C196.417 39.176 195.393 39.336 194.433 39.656C192.641 40.232 190.977 41.288 189.441 42.824C187.905 44.36 186.433 46.408 185.025 48.968L184.353 50.12L181.377 62.312C179.201 70.888 177.921 75.432 177.537 75.944C177.473 76.072 177.313 76.264 177.057 76.52C175.713 77.864 174.145 78.344 172.353 77.96C170.753 77.512 169.889 76.52 169.761 74.984C169.761 74.408 170.977 69.224 173.409 59.432C175.905 49.768 177.217 44.488 177.345 43.592C177.537 41.928 177.473 40.712 177.153 39.944C176.833 39.368 176.385 39.08 175.809 39.08C175.425 39.08 175.073 39.208 174.753 39.464C174.241 39.784 173.697 40.52 173.121 41.672C172.481 43.208 171.681 45.8 170.721 49.448C170.529 49.832 170.401 50.056 170.337 50.12C170.209 50.248 169.441 50.312 168.033 50.312H165.921L165.633 50.024C165.377 49.768 165.409 49 165.729 47.72C167.393 41.704 169.505 37.8 172.065 36.008C173.281 35.24 174.241 34.824 174.945 34.76ZM258.308 11.72L258.596 11.432H274.052L289.604 11.528L290.948 11.72C295.172 12.36 298.564 13.8 301.124 16.04C303.684 18.088 305.252 20.712 305.828 23.912C306.084 25.64 306.02 27.368 305.636 29.096C304.548 33.64 301.444 37.64 296.324 41.096C294.212 42.44 292.004 43.528 289.7 44.36C289.188 44.616 288.9 44.744 288.836 44.744L289.604 45.512C290.948 46.6 292.1 48.04 293.06 49.832C293.764 51.496 294.148 53.16 294.212 54.824C294.212 56.168 294.02 58.44 293.635 61.64C293.316 64.84 293.156 67.336 293.156 69.128C293.156 70.664 293.22 71.656 293.348 72.104C293.732 73.512 294.724 74.344 296.324 74.6C297.156 74.6 297.828 74.376 298.34 73.928C299.3 73.288 300.196 71.528 301.028 68.648C301.284 67.688 301.636 67.144 302.084 67.016C302.34 66.952 302.98 66.92 304.004 66.92C305.348 66.92 306.148 67.08 306.404 67.4C306.66 67.72 306.596 68.424 306.212 69.512C304.612 74.248 302.116 77.288 298.724 78.632C298.276 78.824 297.828 78.952 297.38 79.016C296.932 79.08 296.132 79.112 294.98 79.112C288.388 78.792 284.164 76.712 282.308 72.872C281.796 71.912 281.508 70.664 281.444 69.128C281.444 67.912 281.476 67.144 281.54 66.824C281.86 65.352 282.308 63.368 282.884 60.872C283.972 56.52 284.452 53.768 284.324 52.616C284.068 49.608 282.724 47.656 280.292 46.76L279.62 46.472H273.956H268.388L268.292 46.856C268.292 46.728 267.268 50.824 265.22 59.144C263.236 67.144 262.276 71.144 262.34 71.144C262.66 71.464 264.612 71.624 268.196 71.624H270.116L270.5 71.912C270.692 72.168 270.788 72.424 270.788 72.68C270.788 73.704 270.468 74.952 269.828 76.424C269.636 76.808 268.996 76.968 267.908 76.904C267.652 76.904 267.108 76.904 266.276 76.904C256.676 76.648 249.188 76.68 243.812 77H242.756L242.468 76.712C242.212 76.456 242.084 76.2 242.084 75.944C242.084 74.92 242.404 73.672 243.044 72.2C243.812 71.816 245.028 71.624 246.692 71.624C249.572 71.56 251.204 71.432 251.588 71.24C251.908 71.048 252.164 70.664 252.356 70.088C252.804 68.808 255.012 60.168 258.98 44.168C263.396 26.504 265.604 17.608 265.604 17.48C265.604 17.288 265.54 17.192 265.411 17.192C265.028 17.064 263.524 16.936 260.9 16.808C258.66 16.808 257.412 16.584 257.156 16.136C257.092 15.944 257.188 15.208 257.444 13.928C257.764 12.712 258.052 11.976 258.308 11.72ZM288.164 17C287.78 16.936 285.828 16.872 282.308 16.808C278.916 16.808 276.932 16.872 276.356 17C276.036 17.128 275.844 17.256 275.78 17.384L269.54 41.96H275.108C279.46 41.896 282.308 41.704 283.652 41.384C287.364 40.552 290.084 38.728 291.812 35.912C292.644 34.504 293.444 32.2 294.212 29C294.788 26.632 295.076 24.808 295.076 23.528C295.076 21.8 294.564 20.424 293.54 19.4C292.9 18.76 292.324 18.344 291.812 18.152C290.98 17.704 289.764 17.32 288.164 17ZM337.845 34.664L339.765 34.568H339.861C341.269 34.632 342.517 34.952 343.605 35.528C344.693 36.04 345.653 36.744 346.485 37.64L347.253 38.408L347.829 37.928C349.365 36.456 351.029 36.072 352.821 36.776C353.717 37.096 354.325 37.64 354.645 38.408C354.901 39.112 354.837 40.36 354.453 42.152C354.133 43.56 353.141 47.528 351.477 54.056C349.173 63.4 347.989 68.264 347.925 68.648C347.669 70.44 347.637 71.688 347.829 72.392C347.957 72.712 348.149 72.968 348.405 73.16C348.597 73.352 348.885 73.448 349.269 73.448C349.717 73.448 350.069 73.384 350.325 73.256C351.541 72.36 352.789 69.448 354.069 64.52C354.389 63.304 354.645 62.632 354.837 62.504C354.965 62.376 355.733 62.312 357.141 62.312C358.549 62.312 359.349 62.376 359.541 62.504C359.669 62.632 359.733 62.888 359.733 63.272C359.733 63.656 359.573 64.424 359.253 65.576C356.885 73.64 353.525 77.8 349.173 78.056C345.909 78.248 343.285 77.128 341.301 74.696C340.981 74.312 340.693 73.896 340.437 73.448C340.309 73.064 340.213 72.872 340.149 72.872L339.477 73.448C337.237 75.432 335.029 76.744 332.853 77.384C328.693 78.792 324.949 78.152 321.621 75.464C321.237 75.144 320.885 74.792 320.565 74.408C319.605 73.448 318.805 72.296 318.165 70.952C316.245 67.048 315.861 62.472 317.013 57.224C318.485 50.248 321.813 44.488 326.997 39.944C330.453 36.936 334.069 35.176 337.845 34.664ZM339.861 39.176C337.237 38.728 334.709 39.976 332.277 42.92C331.637 43.752 331.061 44.648 330.549 45.608C329.589 47.464 328.437 51.112 327.093 56.552C326.261 59.624 325.653 62.312 325.269 64.616C325.013 66.792 325.013 68.456 325.269 69.608C325.909 71.848 327.157 73.128 329.013 73.448C330.101 73.64 331.413 73.416 332.949 72.776C335.253 71.496 337.429 69.352 339.477 66.344L339.957 65.672L342.357 56.168L344.757 46.568L344.565 45.8C343.989 42.152 342.549 39.976 340.245 39.272C340.117 39.208 339.989 39.176 339.861 39.176ZM372.476 34.76C373.564 34.44 374.94 34.472 376.604 34.856C378.14 35.24 379.452 35.944 380.54 36.968C381.5 37.928 382.14 38.856 382.46 39.752L382.844 40.52L383.612 39.848C386.364 37.096 389.5 35.432 393.02 34.856C395.324 34.408 397.436 34.44 399.356 34.952C401.852 35.464 403.74 36.552 405.02 38.216C405.724 39.112 406.3 40.296 406.748 41.768C406.876 42.344 406.94 43.4 406.94 44.936C406.94 46.6 406.908 47.656 406.844 48.104C406.14 51.752 404.412 57.416 401.66 65.096C400.636 67.848 400.028 69.736 399.836 70.76C399.644 72.36 399.836 73.256 400.412 73.448C401.18 73.704 402.076 73.544 403.1 72.968C405.084 71.752 406.748 68.776 408.092 64.04C408.412 63.016 408.732 62.472 409.052 62.408C409.244 62.344 409.916 62.312 411.068 62.312C412.476 62.312 413.244 62.376 413.372 62.504C413.756 62.76 413.756 63.432 413.372 64.52C412.668 67.016 411.612 69.352 410.204 71.528C407.644 75.368 404.732 77.512 401.468 77.96C400.316 78.216 399.132 78.152 397.916 77.768C396.06 77.384 394.652 76.52 393.692 75.176C392.476 73.704 391.868 71.976 391.868 69.992C391.868 68.776 392.348 66.792 393.308 64.04C396.444 55.592 398.204 49.608 398.588 46.088C398.844 44.552 398.812 43.112 398.492 41.768C398.044 40.488 397.404 39.688 396.572 39.368C395.932 39.048 394.94 38.984 393.596 39.176C389.372 39.816 385.724 43.016 382.652 48.776L381.884 50.12L378.812 62.312C376.764 70.568 375.644 74.856 375.452 75.176C374.62 76.84 373.244 77.8 371.324 78.056C370.812 78.12 370.332 78.088 369.884 77.96C368.284 77.512 367.42 76.52 367.292 74.984C367.292 74.408 368.508 69.224 370.94 59.432C373.436 49.768 374.748 44.488 374.876 43.592C375.068 41.928 375.004 40.712 374.684 39.944C374.428 39.496 374.012 39.208 373.436 39.08C373.052 39.08 372.732 39.176 372.476 39.368C371.516 39.944 370.62 41.512 369.788 44.072C369.468 44.968 368.956 46.76 368.252 49.448C368.06 49.832 367.932 50.056 367.868 50.12C367.74 50.248 366.972 50.312 365.564 50.312H363.452L363.164 50.024C362.972 49.832 362.876 49.576 362.876 49.256L363.452 47.048C365.052 41.48 367.1 37.8 369.596 36.008C370.62 35.368 371.58 34.952 372.476 34.76ZM440.495 34.76C444.143 34.184 447.151 35.112 449.519 37.544L450.287 38.408L450.767 37.928C451.855 36.84 453.103 36.36 454.511 36.488C455.983 36.616 457.007 37.256 457.583 38.408C457.839 39.048 457.775 40.168 457.391 41.768C457.071 43.432 455.407 50.216 452.399 62.12C448.687 76.84 446.799 84.264 446.735 84.392C446.415 85.608 445.807 86.856 444.911 88.136C444.207 89.224 443.087 90.408 441.551 91.688C439.759 93.16 437.647 94.344 435.215 95.24C433.807 95.752 432.303 96.136 430.703 96.392C429.423 96.648 427.407 96.712 424.655 96.584C418.831 96.2 415.407 94.6 414.383 91.784C414.255 91.144 414.191 90.6 414.191 90.152C414.191 87.336 415.439 85.352 417.935 84.2C418.319 84.072 418.703 83.944 419.087 83.816C421.199 83.304 422.799 83.752 423.887 85.16C424.079 85.416 424.239 85.704 424.367 86.024C425.007 87.816 424.655 89.608 423.311 91.4C423.055 91.72 422.991 91.88 423.119 91.88C423.375 92.072 424.975 92.168 427.919 92.168C429.327 92.104 430.607 91.816 431.759 91.304C433.999 90.28 435.823 88.584 437.231 86.216C437.359 86.024 437.487 85.8 437.615 85.544C437.999 84.712 438.671 82.472 439.631 78.824L440.879 73.928L439.919 74.504C436.783 76.488 433.647 77.288 430.511 76.904C425.647 76.136 422.351 73.32 420.623 68.456C420.047 66.984 419.695 65.416 419.567 63.752C419.311 62.088 419.375 60.328 419.759 58.472C420.847 51.304 423.983 45.32 429.167 40.52C431.599 38.28 434.223 36.648 437.039 35.624C438.127 35.24 439.279 34.952 440.495 34.76ZM442.799 39.176C440.303 38.728 437.903 39.784 435.599 42.344C434.767 43.24 434.095 44.264 433.583 45.416C432.623 47.208 431.407 50.92 429.935 56.552C428.847 61.096 428.303 64.392 428.303 66.44C428.303 67.848 428.527 69 428.975 69.896C429.871 71.752 431.375 72.616 433.487 72.488C436.495 72.168 439.535 69.864 442.607 65.576L443.183 64.712L445.391 55.592C446.927 49.448 447.663 46.056 447.599 45.416C447.535 45.352 447.439 45.032 447.311 44.456C446.863 42.792 446.159 41.48 445.199 40.52C444.559 39.816 443.759 39.368 442.799 39.176ZM486.667 34.664C488.651 34.408 490.443 34.472 492.043 34.856C493.003 35.112 493.995 35.464 495.019 35.912C497.323 37.064 498.795 38.76 499.435 41C499.563 41.448 499.627 42.184 499.627 43.208C499.627 44.36 499.563 45.16 499.435 45.608C498.859 47.528 497.931 49.192 496.651 50.6C494.859 52.392 492.171 53.768 488.587 54.728C485.643 55.432 481.643 55.88 476.587 56.072H474.283L474.091 56.648C473.451 60.168 473.131 61.864 473.131 61.736C472.811 64.04 472.779 66.088 473.035 67.88C473.739 71.272 475.627 73.128 478.699 73.448C478.955 73.512 479.243 73.544 479.563 73.544C482.891 73.544 486.091 72.616 489.163 70.76C490.699 69.864 492.267 68.616 493.867 67.016C495.019 65.864 495.819 65.352 496.267 65.48L497.611 66.824C498.507 67.848 498.859 68.584 498.667 69.032C498.347 69.608 497.259 70.76 495.403 72.488C492.331 74.856 488.747 76.488 484.651 77.384C483.051 77.768 481.163 77.96 478.987 77.96C477.003 77.96 475.339 77.736 473.995 77.288C472.075 76.584 470.347 75.496 468.811 74.024C467.659 72.808 466.763 71.496 466.123 70.088C464.907 67.72 464.203 64.904 464.011 61.64C463.819 55.112 465.707 49.352 469.675 44.36C470.891 42.824 472.235 41.512 473.707 40.424C477.547 37.288 481.867 35.368 486.667 34.664ZM489.835 39.272C487.147 38.76 484.491 39.4 481.867 41.192C479.563 42.664 477.771 45.032 476.491 48.296C475.787 50.024 475.435 51.08 475.435 51.464C475.435 51.72 477.739 51.656 482.347 51.272C482.795 51.272 483.179 51.24 483.499 51.176C487.723 50.728 490.635 49.544 492.235 47.624C492.939 46.728 493.387 45.672 493.579 44.456C493.899 42.152 493.067 40.552 491.083 39.656C490.699 39.464 490.283 39.336 489.835 39.272ZM514.695 34.76C515.783 34.44 517.159 34.472 518.823 34.856C519.847 35.112 520.871 35.592 521.895 36.296C522.919 37.064 523.655 37.864 524.103 38.696L524.487 39.272L525.351 38.408C526.567 37.32 527.783 36.456 528.999 35.816C531.303 34.664 533.671 34.28 536.103 34.664C540.391 35.368 543.079 37.384 544.167 40.712C544.487 41.672 544.615 42.696 544.551 43.784C544.359 46.216 543.527 48.008 542.055 49.16C539.879 50.76 537.863 51.048 536.007 50.024C535.239 49.64 534.695 49.064 534.375 48.296C534.183 47.976 534.055 47.464 533.991 46.76C533.991 45.672 534.215 44.68 534.663 43.784C535.367 42.504 536.231 41.64 537.255 41.192C537.639 41 537.831 40.84 537.831 40.712C537.639 40.328 537.031 39.944 536.007 39.56C534.663 38.984 533.255 38.92 531.783 39.368C529.479 40.2 527.271 42.696 525.159 46.856C524.903 47.368 523.623 52.136 521.319 61.16C519.015 70.44 517.671 75.368 517.287 75.944C517.223 76.072 517.063 76.264 516.807 76.52C515.463 77.864 513.895 78.344 512.103 77.96C510.503 77.512 509.639 76.52 509.511 74.984C509.511 74.408 510.727 69.224 513.159 59.432C515.655 49.768 516.967 44.488 517.095 43.592C517.287 41.928 517.223 40.712 516.903 39.944C516.647 39.496 516.231 39.208 515.655 39.08C515.271 39.08 514.951 39.176 514.695 39.368C514.055 39.816 513.447 40.584 512.871 41.672C512.231 43.208 511.431 45.8 510.471 49.448C510.279 49.832 510.151 50.056 510.087 50.12C509.959 50.248 509.191 50.312 507.783 50.312H505.671L505.383 50.024C505.191 49.832 505.095 49.576 505.095 49.256L505.671 46.952C507.335 41.384 509.383 37.736 511.815 36.008C512.839 35.368 513.799 34.952 514.695 34.76Z" fill="url(#paint0_linear_55_3011)"/>
<defs>
<linearGradient id="paint0_linear_55_3011" x1="0" y1="0" x2="535" y2="95.5" gradientUnits="userSpaceOnUse">
<stop stop-color="#FFEE25"/>
<stop offset="0.531711" stop-color="#F97316"/>
</linearGradient>
</defs>
</svg>
