<svg width="549" height="94" viewBox="0 0 549 94" fill="none" xmlns="http://www.w3.org/2000/svg">
<g filter="url(#filter0_d_48_2994)">
<path d="M21.216 0.911997C21.344 0.783998 29.632 0.719999 46.08 0.719999H70.656L71.04 1.008C71.232 1.264 71.328 1.52 71.328 1.776L68.16 24.144C67.968 24.336 67.84 24.464 67.776 24.528C67.648 24.656 66.944 24.72 65.664 24.72C64.32 24.72 63.552 24.656 63.36 24.528C63.04 24.336 62.944 23.472 63.072 21.936C63.456 19.312 63.648 17.072 63.648 15.216C63.648 12.464 63.296 10.576 62.592 9.552C61.888 8.4 60.608 7.536 58.752 6.96C56.64 6.384 52.416 6.096 46.08 6.096C41.472 6.16 39.072 6.32 38.88 6.576C38.816 6.64 37.792 10.448 35.808 18L33.024 29.328C33.024 29.392 34.432 29.424 37.248 29.424C40.768 29.36 43.04 29.136 44.064 28.752C45.984 28.112 47.392 26.8 48.288 24.816C48.736 23.856 49.216 22.416 49.728 20.496C50.048 19.28 50.304 18.608 50.496 18.48L50.784 18.192H52.704C54.24 18.192 55.136 18.416 55.392 18.864C55.456 19.12 54.432 23.568 52.32 32.208C50.08 40.976 48.928 45.392 48.864 45.456C48.736 45.84 47.872 46.032 46.272 46.032H44.352L43.968 45.744C43.712 45.424 43.744 44.528 44.064 43.056C44.512 41.008 44.736 39.408 44.736 38.256L44.544 37.008C44.224 36.112 43.424 35.504 42.144 35.184C41.056 34.928 38.784 34.8 35.328 34.8H31.68L28.512 47.376C26.4 55.888 25.344 60.176 25.344 60.24C25.344 60.432 25.536 60.528 25.92 60.528H40.224C45.408 60.144 49.408 58.768 52.224 56.4C54.976 54.032 57.824 48.912 60.768 41.04C61.152 40.016 61.472 39.376 61.728 39.12L62.016 38.832H64.032H66.048L66.336 39.12C66.592 39.376 66.592 39.888 66.336 40.656C66.016 41.68 64.48 45.712 61.728 52.752C58.4 61.328 56.736 65.584 56.736 65.52C56.608 65.776 55.616 65.904 53.76 65.904C51.712 65.968 44.064 66 30.816 66H5.568L5.184 65.712C4.992 65.392 4.896 65.136 4.896 64.944C4.896 63.92 5.216 62.672 5.856 61.2C6.624 60.816 7.84 60.624 9.504 60.624C12.384 60.56 14.016 60.432 14.4 60.24C14.72 60.048 14.976 59.664 15.168 59.088C15.616 57.872 17.824 49.2 21.792 33.072C26.208 15.408 28.384 6.576 28.32 6.576C28 6.256 26.048 6.096 22.464 6.096H20.544L20.16 5.808C19.84 5.424 19.872 4.528 20.256 3.12C20.64 1.776 20.96 1.04 21.216 0.911997ZM86.1825 23.664C88.3585 23.344 90.5665 23.664 92.8065 24.624C94.5345 25.392 95.8465 26.48 96.7425 27.888L97.1265 28.368L97.5105 27.792C99.1105 25.872 101.063 24.56 103.367 23.856C106.183 23.088 108.743 23.6 111.047 25.392C111.495 25.712 111.879 26.064 112.199 26.448C112.967 27.344 113.479 28.4 113.735 29.616C114.375 31.728 114.215 33.808 113.255 35.856C112.231 38.032 110.503 39.248 108.071 39.504C106.023 39.696 104.615 38.96 103.847 37.296C103.655 36.976 103.527 36.464 103.463 35.76C103.463 34.672 103.687 33.68 104.135 32.784C104.647 31.632 105.575 30.704 106.919 30C107.495 29.744 107.783 29.552 107.783 29.424C107.527 29.04 107.079 28.688 106.439 28.368C106.119 28.24 105.639 28.176 104.999 28.176C104.359 28.176 103.879 28.24 103.559 28.368C101.959 29.264 100.711 30.96 99.8145 33.456L94.2465 55.632C93.7985 57.616 93.7025 59.088 93.9585 60.048C94.4705 61.776 95.8465 62.608 98.0865 62.544C98.8545 62.48 99.5905 62.32 100.295 62.064C102.855 61.104 104.967 58.896 106.631 55.44C107.079 54.544 107.431 53.648 107.687 52.752C107.943 51.92 108.231 51.472 108.551 51.408C108.743 51.344 109.415 51.312 110.567 51.312C111.975 51.312 112.743 51.376 112.871 51.504C113.191 51.76 113.223 52.304 112.967 53.136C112.455 55.248 111.559 57.2 110.279 58.992C106.951 63.856 102.887 66.544 98.0865 67.056C97.9585 67.056 97.8305 67.056 97.7025 67.056C93.9905 67.248 91.0145 66.032 88.7745 63.408C88.6465 63.344 88.5505 63.248 88.4865 63.12C88.1025 62.672 87.8785 62.416 87.8145 62.352L87.2385 63.024C86.3425 64.048 85.4465 64.816 84.5505 65.328C82.6305 66.544 80.7425 67.12 78.8865 67.056C77.6705 66.992 76.4545 66.672 75.2385 66.096C73.1905 65.136 71.8465 63.408 71.2065 60.912C70.5025 57.712 71.0785 55.056 72.9345 52.944C74.7265 51.216 76.6785 50.672 78.7905 51.312C79.5585 51.568 80.1665 51.952 80.6145 52.464C81.8305 53.808 81.8945 55.6 80.8065 57.84C80.2305 59.056 79.3345 59.984 78.1185 60.624C77.5425 60.944 77.2225 61.104 77.1585 61.104C77.1585 61.36 77.6385 61.744 78.5985 62.256C78.8545 62.384 79.3025 62.448 79.9425 62.448C80.5825 62.448 81.0625 62.384 81.3825 62.256C82.9825 61.424 84.1985 59.76 85.0305 57.264L90.7905 34.608C90.9185 33.968 90.9825 33.072 90.9825 31.92C90.9825 31.024 90.9185 30.416 90.7905 30.096C90.0225 28.432 88.3905 27.824 85.8945 28.272C83.5265 28.72 81.4145 30.32 79.5585 33.072C78.4705 34.8 77.6705 36.592 77.1585 38.448C76.9665 38.832 76.8385 39.056 76.7745 39.12C76.6465 39.248 75.8785 39.312 74.4705 39.312H72.3585L72.0705 39.024C71.8785 38.832 71.7825 38.576 71.7825 38.256C72.0385 36.592 72.9345 34.576 74.4705 32.208C74.5345 32.08 74.5985 31.952 74.6625 31.824C77.4785 27.408 81.0945 24.72 85.5105 23.76C85.7665 23.76 85.9905 23.728 86.1825 23.664ZM140.314 23.664L142.234 23.568H142.33C143.738 23.632 144.986 23.952 146.074 24.528C147.162 25.04 148.122 25.744 148.954 26.64L149.722 27.408L150.298 26.928C151.834 25.456 153.498 25.072 155.29 25.776C156.186 26.096 156.794 26.64 157.114 27.408C157.37 28.112 157.306 29.36 156.922 31.152C156.602 32.56 155.61 36.528 153.946 43.056C151.642 52.4 150.458 57.264 150.394 57.648C150.138 59.44 150.106 60.688 150.298 61.392C150.426 61.712 150.618 61.968 150.874 62.16C151.066 62.352 151.354 62.448 151.738 62.448C152.186 62.448 152.538 62.384 152.794 62.256C154.01 61.36 155.258 58.448 156.538 53.52C156.858 52.304 157.114 51.632 157.306 51.504C157.434 51.376 158.202 51.312 159.61 51.312C161.018 51.312 161.818 51.376 162.01 51.504C162.138 51.632 162.202 51.888 162.202 52.272C162.202 52.656 162.042 53.424 161.722 54.576C159.354 62.64 155.994 66.8 151.642 67.056C148.378 67.248 145.754 66.128 143.77 63.696C143.45 63.312 143.162 62.896 142.906 62.448C142.778 62.064 142.682 61.872 142.618 61.872L141.946 62.448C139.706 64.432 137.498 65.744 135.322 66.384C131.162 67.792 127.418 67.152 124.09 64.464C123.706 64.144 123.354 63.792 123.034 63.408C122.074 62.448 121.274 61.296 120.634 59.952C118.714 56.048 118.33 51.472 119.482 46.224C120.954 39.248 124.282 33.488 129.466 28.944C132.922 25.936 136.538 24.176 140.314 23.664ZM142.33 28.176C139.706 27.728 137.178 28.976 134.746 31.92C134.106 32.752 133.53 33.648 133.018 34.608C132.058 36.464 130.906 40.112 129.562 45.552C128.73 48.624 128.122 51.312 127.738 53.616C127.482 55.792 127.482 57.456 127.738 58.608C128.378 60.848 129.626 62.128 131.482 62.448C132.57 62.64 133.882 62.416 135.418 61.776C137.722 60.496 139.898 58.352 141.946 55.344L142.426 54.672L144.826 45.168L147.226 35.568L147.034 34.8C146.458 31.152 145.018 28.976 142.714 28.272C142.586 28.208 142.458 28.176 142.33 28.176ZM174.945 23.76C176.033 23.44 177.409 23.472 179.073 23.856C180.865 24.368 182.273 25.2 183.297 26.352C184.001 27.056 184.609 28.016 185.121 29.232L185.313 29.616L186.081 28.848C188.641 26.416 191.361 24.816 194.241 24.048C197.953 23.088 201.313 23.312 204.321 24.72C205.409 25.232 206.369 25.904 207.201 26.736C207.777 27.376 208.193 28.016 208.449 28.656L209.121 30.096V30.384L210.081 29.424C213.025 26.288 216.353 24.432 220.065 23.856C222.369 23.408 224.481 23.44 226.401 23.952C228.897 24.464 230.785 25.552 232.065 27.216C232.769 28.112 233.345 29.296 233.793 30.768C233.921 31.344 233.985 32.4 233.985 33.936C233.985 35.6 233.953 36.656 233.889 37.104C233.185 40.88 231.457 46.544 228.705 54.096C227.361 57.808 226.721 60.24 226.785 61.392C226.849 62.096 227.201 62.48 227.841 62.544C229.377 62.672 230.785 61.84 232.065 60.048C233.345 58.256 234.369 55.92 235.137 53.04C235.457 52.016 235.777 51.472 236.097 51.408C236.289 51.344 236.961 51.312 238.113 51.312C239.521 51.312 240.289 51.376 240.417 51.504C240.801 51.76 240.801 52.432 240.417 53.52C239.201 57.808 237.281 61.2 234.657 63.696C233.825 64.528 232.801 65.296 231.585 66C228.769 67.408 226.017 67.472 223.329 66.192C222.177 65.616 221.313 64.944 220.737 64.176C219.521 62.704 218.913 60.976 218.913 58.992C218.913 57.776 219.393 55.792 220.353 53.04C223.489 44.592 225.249 38.608 225.633 35.088C225.889 33.552 225.857 32.112 225.537 30.768C225.089 29.488 224.449 28.688 223.617 28.368C222.977 28.048 221.985 27.984 220.641 28.176C216.417 28.816 212.769 32.016 209.697 37.776L208.929 39.12L205.857 51.312C203.809 59.568 202.689 63.856 202.497 64.176C201.665 65.84 200.289 66.8 198.369 67.056C197.857 67.12 197.377 67.088 196.929 66.96C195.329 66.512 194.465 65.52 194.337 63.984C194.337 63.472 195.361 59.056 197.409 50.736C199.585 42.032 200.705 37.488 200.769 37.104C201.089 35.568 201.249 34.128 201.249 32.784C201.185 31.056 200.769 29.808 200.001 29.04C199.809 28.72 199.521 28.496 199.137 28.368C198.881 28.24 198.337 28.176 197.505 28.176C196.417 28.176 195.393 28.336 194.433 28.656C192.641 29.232 190.977 30.288 189.441 31.824C187.905 33.36 186.433 35.408 185.025 37.968L184.353 39.12L181.377 51.312C179.201 59.888 177.921 64.432 177.537 64.944C177.473 65.072 177.313 65.264 177.057 65.52C175.713 66.864 174.145 67.344 172.353 66.96C170.753 66.512 169.889 65.52 169.761 63.984C169.761 63.408 170.977 58.224 173.409 48.432C175.905 38.768 177.217 33.488 177.345 32.592C177.537 30.928 177.473 29.712 177.153 28.944C176.833 28.368 176.385 28.08 175.809 28.08C175.425 28.08 175.073 28.208 174.753 28.464C174.241 28.784 173.697 29.52 173.121 30.672C172.481 32.208 171.681 34.8 170.721 38.448C170.529 38.832 170.401 39.056 170.337 39.12C170.209 39.248 169.441 39.312 168.033 39.312H165.921L165.633 39.024C165.377 38.768 165.409 38 165.729 36.72C167.393 30.704 169.505 26.8 172.065 25.008C173.281 24.24 174.241 23.824 174.945 23.76ZM258.308 0.719999L258.596 0.431997H274.052L289.604 0.527996L290.948 0.719999C295.172 1.36 298.564 2.8 301.124 5.04C303.684 7.088 305.252 9.712 305.828 12.912C306.084 14.64 306.02 16.368 305.636 18.096C304.548 22.64 301.444 26.64 296.324 30.096C294.212 31.44 292.004 32.528 289.7 33.36C289.188 33.616 288.9 33.744 288.836 33.744L289.604 34.512C290.948 35.6 292.1 37.04 293.06 38.832C293.764 40.496 294.148 42.16 294.212 43.824C294.212 45.168 294.02 47.44 293.635 50.64C293.316 53.84 293.156 56.336 293.156 58.128C293.156 59.664 293.22 60.656 293.348 61.104C293.732 62.512 294.724 63.344 296.324 63.6C297.156 63.6 297.828 63.376 298.34 62.928C299.3 62.288 300.196 60.528 301.028 57.648C301.284 56.688 301.636 56.144 302.084 56.016C302.34 55.952 302.98 55.92 304.004 55.92C305.348 55.92 306.148 56.08 306.404 56.4C306.66 56.72 306.596 57.424 306.212 58.512C304.612 63.248 302.116 66.288 298.724 67.632C298.276 67.824 297.828 67.952 297.38 68.016C296.932 68.08 296.132 68.112 294.98 68.112C288.388 67.792 284.164 65.712 282.308 61.872C281.796 60.912 281.508 59.664 281.444 58.128C281.444 56.912 281.476 56.144 281.54 55.824C281.86 54.352 282.308 52.368 282.884 49.872C283.972 45.52 284.452 42.768 284.324 41.616C284.068 38.608 282.724 36.656 280.292 35.76L279.62 35.472H273.956H268.388L268.292 35.856C268.292 35.728 267.268 39.824 265.22 48.144C263.236 56.144 262.276 60.144 262.34 60.144C262.66 60.464 264.612 60.624 268.196 60.624H270.116L270.5 60.912C270.692 61.168 270.788 61.424 270.788 61.68C270.788 62.704 270.468 63.952 269.828 65.424C269.636 65.808 268.996 65.968 267.908 65.904C267.652 65.904 267.108 65.904 266.276 65.904C256.676 65.648 249.188 65.68 243.812 66H242.756L242.468 65.712C242.212 65.456 242.084 65.2 242.084 64.944C242.084 63.92 242.404 62.672 243.044 61.2C243.812 60.816 245.028 60.624 246.692 60.624C249.572 60.56 251.204 60.432 251.588 60.24C251.908 60.048 252.164 59.664 252.356 59.088C252.804 57.808 255.012 49.168 258.98 33.168C263.396 15.504 265.604 6.608 265.604 6.48C265.604 6.288 265.54 6.192 265.411 6.192C265.028 6.064 263.524 5.936 260.9 5.808C258.66 5.808 257.412 5.584 257.156 5.136C257.092 4.944 257.188 4.208 257.444 2.928C257.764 1.712 258.052 0.975996 258.308 0.719999ZM288.164 6C287.78 5.936 285.828 5.872 282.308 5.808C278.916 5.808 276.932 5.872 276.356 6C276.036 6.128 275.844 6.256 275.78 6.384L269.54 30.96H275.108C279.46 30.896 282.308 30.704 283.652 30.384C287.364 29.552 290.084 27.728 291.812 24.912C292.644 23.504 293.444 21.2 294.212 18C294.788 15.632 295.076 13.808 295.076 12.528C295.076 10.8 294.564 9.424 293.54 8.4C292.9 7.76 292.324 7.344 291.812 7.152C290.98 6.704 289.764 6.32 288.164 6ZM337.845 23.664L339.765 23.568H339.861C341.269 23.632 342.517 23.952 343.605 24.528C344.693 25.04 345.653 25.744 346.485 26.64L347.253 27.408L347.829 26.928C349.365 25.456 351.029 25.072 352.821 25.776C353.717 26.096 354.325 26.64 354.645 27.408C354.901 28.112 354.837 29.36 354.453 31.152C354.133 32.56 353.141 36.528 351.477 43.056C349.173 52.4 347.989 57.264 347.925 57.648C347.669 59.44 347.637 60.688 347.829 61.392C347.957 61.712 348.149 61.968 348.405 62.16C348.597 62.352 348.885 62.448 349.269 62.448C349.717 62.448 350.069 62.384 350.325 62.256C351.541 61.36 352.789 58.448 354.069 53.52C354.389 52.304 354.645 51.632 354.837 51.504C354.965 51.376 355.733 51.312 357.141 51.312C358.549 51.312 359.349 51.376 359.541 51.504C359.669 51.632 359.733 51.888 359.733 52.272C359.733 52.656 359.573 53.424 359.253 54.576C356.885 62.64 353.525 66.8 349.173 67.056C345.909 67.248 343.285 66.128 341.301 63.696C340.981 63.312 340.693 62.896 340.437 62.448C340.309 62.064 340.213 61.872 340.149 61.872L339.477 62.448C337.237 64.432 335.029 65.744 332.853 66.384C328.693 67.792 324.949 67.152 321.621 64.464C321.237 64.144 320.885 63.792 320.565 63.408C319.605 62.448 318.805 61.296 318.165 59.952C316.245 56.048 315.861 51.472 317.013 46.224C318.485 39.248 321.813 33.488 326.997 28.944C330.453 25.936 334.069 24.176 337.845 23.664ZM339.861 28.176C337.237 27.728 334.709 28.976 332.277 31.92C331.637 32.752 331.061 33.648 330.549 34.608C329.589 36.464 328.437 40.112 327.093 45.552C326.261 48.624 325.653 51.312 325.269 53.616C325.013 55.792 325.013 57.456 325.269 58.608C325.909 60.848 327.157 62.128 329.013 62.448C330.101 62.64 331.413 62.416 332.949 61.776C335.253 60.496 337.429 58.352 339.477 55.344L339.957 54.672L342.357 45.168L344.757 35.568L344.565 34.8C343.989 31.152 342.549 28.976 340.245 28.272C340.117 28.208 339.989 28.176 339.861 28.176ZM372.476 23.76C373.564 23.44 374.94 23.472 376.604 23.856C378.14 24.24 379.452 24.944 380.54 25.968C381.5 26.928 382.14 27.856 382.46 28.752L382.844 29.52L383.612 28.848C386.364 26.096 389.5 24.432 393.02 23.856C395.324 23.408 397.436 23.44 399.356 23.952C401.852 24.464 403.74 25.552 405.02 27.216C405.724 28.112 406.3 29.296 406.748 30.768C406.876 31.344 406.94 32.4 406.94 33.936C406.94 35.6 406.908 36.656 406.844 37.104C406.14 40.752 404.412 46.416 401.66 54.096C400.636 56.848 400.028 58.736 399.836 59.76C399.644 61.36 399.836 62.256 400.412 62.448C401.18 62.704 402.076 62.544 403.1 61.968C405.084 60.752 406.748 57.776 408.092 53.04C408.412 52.016 408.732 51.472 409.052 51.408C409.244 51.344 409.916 51.312 411.068 51.312C412.476 51.312 413.244 51.376 413.372 51.504C413.756 51.76 413.756 52.432 413.372 53.52C412.668 56.016 411.612 58.352 410.204 60.528C407.644 64.368 404.732 66.512 401.468 66.96C400.316 67.216 399.132 67.152 397.916 66.768C396.06 66.384 394.652 65.52 393.692 64.176C392.476 62.704 391.868 60.976 391.868 58.992C391.868 57.776 392.348 55.792 393.308 53.04C396.444 44.592 398.204 38.608 398.588 35.088C398.844 33.552 398.812 32.112 398.492 30.768C398.044 29.488 397.404 28.688 396.572 28.368C395.932 28.048 394.94 27.984 393.596 28.176C389.372 28.816 385.724 32.016 382.652 37.776L381.884 39.12L378.812 51.312C376.764 59.568 375.644 63.856 375.452 64.176C374.62 65.84 373.244 66.8 371.324 67.056C370.812 67.12 370.332 67.088 369.884 66.96C368.284 66.512 367.42 65.52 367.292 63.984C367.292 63.408 368.508 58.224 370.94 48.432C373.436 38.768 374.748 33.488 374.876 32.592C375.068 30.928 375.004 29.712 374.684 28.944C374.428 28.496 374.012 28.208 373.436 28.08C373.052 28.08 372.732 28.176 372.476 28.368C371.516 28.944 370.62 30.512 369.788 33.072C369.468 33.968 368.956 35.76 368.252 38.448C368.06 38.832 367.932 39.056 367.868 39.12C367.74 39.248 366.972 39.312 365.564 39.312H363.452L363.164 39.024C362.972 38.832 362.876 38.576 362.876 38.256L363.452 36.048C365.052 30.48 367.1 26.8 369.596 25.008C370.62 24.368 371.58 23.952 372.476 23.76ZM440.495 23.76C444.143 23.184 447.151 24.112 449.519 26.544L450.287 27.408L450.767 26.928C451.855 25.84 453.103 25.36 454.511 25.488C455.983 25.616 457.007 26.256 457.583 27.408C457.839 28.048 457.775 29.168 457.391 30.768C457.071 32.432 455.407 39.216 452.399 51.12C448.687 65.84 446.799 73.264 446.735 73.392C446.415 74.608 445.807 75.856 444.911 77.136C444.207 78.224 443.087 79.408 441.551 80.688C439.759 82.16 437.647 83.344 435.215 84.24C433.807 84.752 432.303 85.136 430.703 85.392C429.423 85.648 427.407 85.712 424.655 85.584C418.831 85.2 415.407 83.6 414.383 80.784C414.255 80.144 414.191 79.6 414.191 79.152C414.191 76.336 415.439 74.352 417.935 73.2C418.319 73.072 418.703 72.944 419.087 72.816C421.199 72.304 422.799 72.752 423.887 74.16C424.079 74.416 424.239 74.704 424.367 75.024C425.007 76.816 424.655 78.608 423.311 80.4C423.055 80.72 422.991 80.88 423.119 80.88C423.375 81.072 424.975 81.168 427.919 81.168C429.327 81.104 430.607 80.816 431.759 80.304C433.999 79.28 435.823 77.584 437.231 75.216C437.359 75.024 437.487 74.8 437.615 74.544C437.999 73.712 438.671 71.472 439.631 67.824L440.879 62.928L439.919 63.504C436.783 65.488 433.647 66.288 430.511 65.904C425.647 65.136 422.351 62.32 420.623 57.456C420.047 55.984 419.695 54.416 419.567 52.752C419.311 51.088 419.375 49.328 419.759 47.472C420.847 40.304 423.983 34.32 429.167 29.52C431.599 27.28 434.223 25.648 437.039 24.624C438.127 24.24 439.279 23.952 440.495 23.76ZM442.799 28.176C440.303 27.728 437.903 28.784 435.599 31.344C434.767 32.24 434.095 33.264 433.583 34.416C432.623 36.208 431.407 39.92 429.935 45.552C428.847 50.096 428.303 53.392 428.303 55.44C428.303 56.848 428.527 58 428.975 58.896C429.871 60.752 431.375 61.616 433.487 61.488C436.495 61.168 439.535 58.864 442.607 54.576L443.183 53.712L445.391 44.592C446.927 38.448 447.663 35.056 447.599 34.416C447.535 34.352 447.439 34.032 447.311 33.456C446.863 31.792 446.159 30.48 445.199 29.52C444.559 28.816 443.759 28.368 442.799 28.176ZM486.667 23.664C488.651 23.408 490.443 23.472 492.043 23.856C493.003 24.112 493.995 24.464 495.019 24.912C497.323 26.064 498.795 27.76 499.435 30C499.563 30.448 499.627 31.184 499.627 32.208C499.627 33.36 499.563 34.16 499.435 34.608C498.859 36.528 497.931 38.192 496.651 39.6C494.859 41.392 492.171 42.768 488.587 43.728C485.643 44.432 481.643 44.88 476.587 45.072H474.283L474.091 45.648C473.451 49.168 473.131 50.864 473.131 50.736C472.811 53.04 472.779 55.088 473.035 56.88C473.739 60.272 475.627 62.128 478.699 62.448C478.955 62.512 479.243 62.544 479.563 62.544C482.891 62.544 486.091 61.616 489.163 59.76C490.699 58.864 492.267 57.616 493.867 56.016C495.019 54.864 495.819 54.352 496.267 54.48L497.611 55.824C498.507 56.848 498.859 57.584 498.667 58.032C498.347 58.608 497.259 59.76 495.403 61.488C492.331 63.856 488.747 65.488 484.651 66.384C483.051 66.768 481.163 66.96 478.987 66.96C477.003 66.96 475.339 66.736 473.995 66.288C472.075 65.584 470.347 64.496 468.811 63.024C467.659 61.808 466.763 60.496 466.123 59.088C464.907 56.72 464.203 53.904 464.011 50.64C463.819 44.112 465.707 38.352 469.675 33.36C470.891 31.824 472.235 30.512 473.707 29.424C477.547 26.288 481.867 24.368 486.667 23.664ZM489.835 28.272C487.147 27.76 484.491 28.4 481.867 30.192C479.563 31.664 477.771 34.032 476.491 37.296C475.787 39.024 475.435 40.08 475.435 40.464C475.435 40.72 477.739 40.656 482.347 40.272C482.795 40.272 483.179 40.24 483.499 40.176C487.723 39.728 490.635 38.544 492.235 36.624C492.939 35.728 493.387 34.672 493.579 33.456C493.899 31.152 493.067 29.552 491.083 28.656C490.699 28.464 490.283 28.336 489.835 28.272ZM514.695 23.76C515.783 23.44 517.159 23.472 518.823 23.856C519.847 24.112 520.871 24.592 521.895 25.296C522.919 26.064 523.655 26.864 524.103 27.696L524.487 28.272L525.351 27.408C526.567 26.32 527.783 25.456 528.999 24.816C531.303 23.664 533.671 23.28 536.103 23.664C540.391 24.368 543.079 26.384 544.167 29.712C544.487 30.672 544.615 31.696 544.551 32.784C544.359 35.216 543.527 37.008 542.055 38.16C539.879 39.76 537.863 40.048 536.007 39.024C535.239 38.64 534.695 38.064 534.375 37.296C534.183 36.976 534.055 36.464 533.991 35.76C533.991 34.672 534.215 33.68 534.663 32.784C535.367 31.504 536.231 30.64 537.255 30.192C537.639 30 537.831 29.84 537.831 29.712C537.639 29.328 537.031 28.944 536.007 28.56C534.663 27.984 533.255 27.92 531.783 28.368C529.479 29.2 527.271 31.696 525.159 35.856C524.903 36.368 523.623 41.136 521.319 50.16C519.015 59.44 517.671 64.368 517.287 64.944C517.223 65.072 517.063 65.264 516.807 65.52C515.463 66.864 513.895 67.344 512.103 66.96C510.503 66.512 509.639 65.52 509.511 63.984C509.511 63.408 510.727 58.224 513.159 48.432C515.655 38.768 516.967 33.488 517.095 32.592C517.287 30.928 517.223 29.712 516.903 28.944C516.647 28.496 516.231 28.208 515.655 28.08C515.271 28.08 514.951 28.176 514.695 28.368C514.055 28.816 513.447 29.584 512.871 30.672C512.231 32.208 511.431 34.8 510.471 38.448C510.279 38.832 510.151 39.056 510.087 39.12C509.959 39.248 509.191 39.312 507.783 39.312H505.671L505.383 39.024C505.191 38.832 505.095 38.576 505.095 38.256L505.671 35.952C507.335 30.384 509.383 26.736 511.815 25.008C512.839 24.368 513.799 23.952 514.695 23.76Z" fill="#F97F2A"/>
</g>
<defs>
<filter id="filter0_d_48_2994" x="0.895996" y="0.432007" width="547.751" height="93.344" filterUnits="userSpaceOnUse" color-interpolation-filters="sRGB">
<feFlood flood-opacity="0" result="BackgroundImageFix"/>
<feColorMatrix in="SourceAlpha" type="matrix" values="0 0 0 0 0 0 0 0 0 0 0 0 0 0 0 0 0 0 127 0" result="hardAlpha"/>
<feOffset dy="4"/>
<feGaussianBlur stdDeviation="2"/>
<feComposite in2="hardAlpha" operator="out"/>
<feColorMatrix type="matrix" values="0 0 0 0 0 0 0 0 0 0 0 0 0 0 0 0 0 0 0.25 0"/>
<feBlend mode="normal" in2="BackgroundImageFix" result="effect1_dropShadow_48_2994"/>
<feBlend mode="normal" in="SourceGraphic" in2="effect1_dropShadow_48_2994" result="shape"/>
</filter>
</defs>
</svg>
